<svg width="18" height="18" viewBox="0 0 18 18" fill="none" xmlns="http://www.w3.org/2000/svg">
<path id="layer1" d="M13.9662 11.4545C13.653 11.2562 13.2754 11.186 12.9119 11.2587C12.5483 11.3314 12.2267 11.5413 12.014 11.8449C11.2931 12.7156 10.4221 14.1568 7.14831 10.8841C3.8745 7.61132 5.28615 6.71056 6.15716 5.98996C6.46079 5.77726 6.67078 5.45579 6.74349 5.09234C6.81621 4.72889 6.74606 4.35141 6.54761 4.03833L4.50524 0.915717C4.23492 0.525391 3.8745 -0.105136 3.03353 0.0149644C2.19255 0.135065 0 1.36609 0 4.06835C0 6.77061 2.13248 10.0734 5.04587 12.9858C7.95925 15.8982 11.2631 18 13.9362 18C16.6093 18 17.9008 15.598 17.9909 14.9975C18.081 14.397 17.4803 13.7965 17.0899 13.5263L13.9662 11.4545Z" fill="white"/>
</svg>
